<svg xmlns="http://www.w3.org/2000/svg" xmlns:xlink="http://www.w3.org/1999/xlink" version="1.1" x="0px" y="0px" viewBox="0 0 100 125" enable-background="new 0 0 100 100" xml:space="preserve"><g><path fill="#000000" d="M65.834,40.34l1.15-1.908l-2.195,0.188c-0.031,0.002-0.076,0.031-0.094,0.057l-1.15,1.91l2.195-0.188   C65.771,40.396,65.816,40.369,65.834,40.34z M66.016,38.881c0.07-0.119,0.238-0.225,0.377-0.236   c0.135-0.012,0.188,0.074,0.117,0.193c-0.072,0.119-0.24,0.225-0.377,0.236C65.998,39.086,65.945,39,66.016,38.881z M64.561,40.148   c-0.072,0.119-0.24,0.225-0.375,0.234c-0.137,0.014-0.188-0.074-0.117-0.193c0.07-0.119,0.238-0.223,0.375-0.236   C64.58,39.943,64.633,40.029,64.561,40.148z M64.791,38.984c0.07-0.117,0.24-0.225,0.375-0.234   c0.137-0.012,0.191,0.074,0.119,0.193c-0.072,0.119-0.24,0.225-0.375,0.236C64.771,39.191,64.721,39.104,64.791,38.984z    M65.291,40.086c0.072-0.119,0.24-0.225,0.377-0.236c0.135-0.012,0.189,0.076,0.117,0.193c-0.07,0.119-0.238,0.225-0.375,0.236   C65.273,40.29,65.221,40.205,65.291,40.086z"/><path fill="#000000" d="M90.383,43.613c0,0,0.723,0.268,1.779,0.51c1.303,0.297,2.637,0.443,3.971,0.342   c0.92-0.07,1.861-0.25,2.352-0.621c0.502-0.383,0.492-0.926-0.055-1.477c-0.818-0.818-2.535-1.516-3.641-2.053   c-1.365-0.664-2.752-1.361-4.01-2.004c-2.123-1.086-3.855-2.004-4.42-2.305c0.381-2.514,0.797-7.012,0.906-11.803   c0.082-3.611-1.197-5.336-1.349-5.525c-1.347-2.221-3.761-1.229-4.386-0.715c-0.268,0.189-1.766,1.301-3.217,2.377l-3.108,2.311   c-0.763,0.047-7.104,0.445-8.056,0.508c-0.459,0.031-1.022,0.223-1.317,0.605L65.07,24.63l-1.596,1.867   c-3.004,0.062-5.965-0.031-9.057,0.064c-13.107,0.402-20.584,1.17-24.67,1.779c0.15,0.064,0.299,0.135,0.447,0.209   c0.115,0.059,0.229,0.121,0.344,0.188c2.338,1.352,4.516,4.225,5.822,7.732l6.617-0.906c-1.125-3.789-3.203-6.357-5.744-7.562   l0.631-0.053c2.434,1.346,4.377,3.922,5.449,7.568l7.413-1.014c-1.097-1.004-2.187-2.133-3.25-3.404   c-1.479-1.766-3.264-2.902-5.025-3.486c2.396-0.152,5.107-0.293,8.172-0.414c2.453,0.836,4.467,3.08,5.551,6.557l-5.447,0.748   c0.107,0.098,0.217,0.195,0.324,0.293l5.221-0.715c0.416,1.451,0.679,3.107,0.746,4.955l0.344,0.188   c-0.059-1.928-0.319-3.664-0.756-5.188l9.418-1.291l10.771-1.395c0.399-0.035,0.584-0.422,0.584-0.795   c0-0.541-0.004-1.809-0.004-1.812c-0.002-0.111-0.031-2.705-0.062-3.398c-0.033-0.838-0.432-1.619-1.021-2.195   c1.349,0.02,2.901,0.076,3.992,0.123c0.225,0.01,0.237-0.326,0.016-0.336c-1.219-0.053-3.019-0.117-4.465-0.129l2.781-2.062   c1.606-1.193,3.18-2.357,3.219-2.379c0.386-0.318,0.853-0.506,1.33-0.555l-0.002,0.029c-0.013,6.104-0.127,12.246-1.06,18.289   l-3.764,1.23c-0.859,0.279-1.512,0.691-1.545,1.422c-0.215,0.088-0.203,0.463,0.086,0.484c1.779,0.133,4.537,1.182,6.404,1.822   C86.896,42.328,90.383,43.613,90.383,43.613z M56.512,33.711c-1-3.25-2.799-5.494-5.064-6.543c0.964-0.037,1.957-0.07,2.988-0.102   c2.105-0.064,4.215-0.041,6.322-0.043l0.471,0.117c1.904,0.684,3.521,2.484,4.545,5.301L56.512,33.711z M77.041,30.557   c0,0.178-0.045,0.402-0.242,0.453c-0.018,0.006-0.037,0.008-0.037,0.008l-10.648,1.379c-0.959-2.68-2.467-4.525-4.295-5.375   c0.507-0.002,1.011-0.008,1.515-0.018c0.394,0.158,1.483,0.602,2.731,1.115c1.338,0.553,2.929,1.184,4.242,1.23   c0.531,0.02,5.697-0.344,6.732-0.418C77.039,29.299,77.041,30.143,77.041,30.557z M75.84,23.197   c0.646,0.498,1.107,1.35,1.139,2.162c0.025,0.604,0.051,2.648,0.058,3.234c-0.978,0.07-6.187,0.439-6.718,0.422   c-1.243-0.045-2.772-0.648-4.125-1.207c-0.957-0.395-1.823-0.746-2.352-0.961l1.611-1.887l0.773-0.881   c0.213-0.271,0.635-0.396,0.957-0.418l0.174-0.01c1.143-0.039,1.877,1.035,1.877,1.035l0.742-0.055   c-0.394-0.506-0.697-0.885-1.271-1.068l0.938-0.059c0.988,0.533,1.687,1.832,1.687,3.35v0.455l0.896,1.123l4.232-0.215V25.85   c0,0-0.02-2-1.328-2.691l0.258-0.016h0.346L75.84,23.197z M90.557,38.762c1.256,0.643,2.646,1.344,4.016,2.008   c1.015,0.492,2.777,1.229,3.505,1.957c0.396,0.398,0.293,0.572,0.104,0.717c-0.058,0.041-0.123,0.082-0.197,0.117   c-1.035-0.658-2.146-1.318-3.18-1.846c-1.394-0.707-8.099-3.678-11.726-5.332l2.75-0.082l0.287,0.148   C86.67,36.744,88.414,37.668,90.557,38.762z M83.5,17.842c0-0.016-0.002-0.029-0.006-0.045c0.781,0.021,1.551,0.404,2.01,1.17   c1.02,1.234,1.289,3.807,1.256,5.225c-0.107,4.783-0.521,9.273-0.906,11.771l-3.396,0.092C83.373,30.035,83.49,23.922,83.5,17.842z    M78.447,37.682l3.689-1.205l0.108-0.037l0.099-0.023c3.43,1.576,10.836,4.85,12.307,5.6c0.957,0.486,1.977,1.088,2.94,1.697   c-0.399,0.121-0.924,0.205-1.497,0.25c-1.279,0.098-2.568-0.047-3.822-0.332c-1.021-0.232-1.713-0.49-1.713-0.49   s-3.496-1.289-7.119-2.531c-1.838-0.631-4.469-1.629-6.306-1.824C77.166,38.291,77.602,37.955,78.447,37.682z"/><path fill="#000000" d="M75.271,42.559c0.031,0.01,0.098,0.014,0.127-0.014l1.725-1.648c0,0,0.029-0.016,0.016-0.043   c-0.008-0.014-0.031-0.018-0.031-0.018L75,40.176c-0.033-0.01-0.09,0.004-0.119,0.031l-1.693,1.625c0,0-0.059,0.057-0.033,0.078   c0.009,0.006,0.046,0.016,0.046,0.016L75.271,42.559z M75.588,42.156c-0.115,0.109-0.322,0.164-0.463,0.121   c-0.143-0.043-0.162-0.166-0.047-0.277c0.115-0.109,0.322-0.164,0.463-0.121S75.703,42.047,75.588,42.156z M76.113,41.014   c0.115-0.107,0.322-0.162,0.463-0.119c0.143,0.043,0.162,0.166,0.047,0.277c-0.115,0.109-0.322,0.162-0.463,0.119   C76.018,41.248,75.998,41.125,76.113,41.014z M75.396,40.797c0.117-0.111,0.324-0.164,0.465-0.121s0.162,0.166,0.047,0.275   c-0.115,0.109-0.324,0.164-0.465,0.121C75.303,41.029,75.283,40.906,75.396,40.797z M74.682,40.578   c0.115-0.111,0.322-0.164,0.465-0.121c0.142,0.043,0.162,0.166,0.045,0.275c-0.112,0.111-0.321,0.164-0.463,0.121   C74.588,40.81,74.566,40.688,74.682,40.578z M74.363,41.781c0.113-0.109,0.322-0.162,0.463-0.119s0.162,0.166,0.047,0.275   c-0.115,0.111-0.322,0.164-0.465,0.121C74.268,42.016,74.246,41.891,74.363,41.781z M73.646,41.562   c0.115-0.109,0.324-0.164,0.463-0.121c0.143,0.043,0.162,0.168,0.049,0.277c-0.117,0.109-0.324,0.164-0.465,0.121   S73.531,41.672,73.646,41.562z"/><path fill="#000000" d="M78.771,39.947l-2.174,0.465l0.271,0.086c0,0,0.188,0.059,0.332,0.129l2.276-0.488   C79.244,40.072,79.008,40.008,78.771,39.947z"/><path fill="#000000" d="M66.979,38.26l-1.229-1.957c-0.026-0.041-0.09-0.074-0.14-0.072l-2.09,0.084   c-0.041,0.002-0.055,0.027-0.031,0.064l1.168,2.061c0.027,0.041,0.091,0.074,0.138,0.072l2.151-0.189   C66.986,38.322,67.002,38.297,66.979,38.26z M65.498,37.463c-0.062,0.104-0.213,0.123-0.34,0.045   c-0.125-0.08-0.176-0.227-0.113-0.328s0.215-0.119,0.338-0.041C65.508,37.217,65.559,37.361,65.498,37.463z"/><path fill="#000000" d="M13.848,55.516c-0.68-1.565-1.393-3.203-1.916-4.371c-0.518-0.719-0.957-1.682-1.285-2.796   c-0.541-1.098-0.975-1.779-1.379-1.885l-0.129,0.014c0.453,3.441,1.656,6.285,3.131,7.658   C12.75,54.656,13.277,55.113,13.848,55.516z"/><path fill="#000000" d="M13.035,33.314c1.17-0.922,2.633-1.822,4.328-2.537c-1.521-0.391-2.543-1.105-2.543-1.922   c0-0.609,0.568-1.16,1.488-1.564l-0.014-0.043c-0.201,0.006-0.406,0.01-0.615,0.01c-3.541,0-6.412-0.945-6.412-2.113   c0-0.291,0.178-0.568,0.5-0.824c-2.68-0.051-4.879-0.809-5.061-1.688c0.391-0.201,0.986-0.334,1.844-0.383   c4.648,0.127,11.406,3.506,16.504,6.547l0.119-0.031l0.332-0.088c-3.881-2.336-8.838-4.938-13.113-6.123   c4.281,0.893,9.363,3.488,13.561,6.006c0.25-0.066,0.477-0.123,0.684-0.176c-5.125-3.109-11.818-6.516-16.779-6.652   c-4.092-0.111-5.043,1.203-3.717,3.322C5.691,27.535,10.285,31.105,13.035,33.314z M7.684,27.828   c2.402,2.127,3.725,3.498,2.062,2.186c-3.197-2.521-5.508-5.486-5.494-5.762C4.266,23.975,5.869,26.217,7.684,27.828z"/><path fill="#000000" d="M13.836,56.025c-0.658-0.437-1.266-0.943-1.816-1.529c-0.551-0.094-0.887-0.262-0.93-0.51   c-0.018-0.117,0.031-0.244,0.145-0.375c-0.672-0.896-1.256-2.086-1.705-3.473c-0.406-0.273-0.811-0.498-1.197-0.684   c0.277-0.166,0.57-0.32,0.867-0.465c-0.043-0.164-0.082-0.33-0.121-0.5C1.797,51.902,6.393,56.957,13.836,56.025z"/><path fill="#000000" d="M76.182,44.779l1.6-1.668c0.027-0.027,0.039-0.084,0.029-0.117l-0.6-2.008l-1.717,1.629   c-0.025,0.029-0.039,0.082-0.029,0.117l0.705,2.055L76.182,44.779z M76.793,42.607c0.113,0.037,0.168,0.18,0.121,0.316   c-0.045,0.141-0.174,0.225-0.287,0.191c-0.113-0.035-0.17-0.178-0.125-0.318C76.549,42.654,76.68,42.57,76.793,42.607z"/><path fill="#000000" d="M32.793,42.127c-0.008,0.002-0.021,0.021-0.043,0.059c-0.021,0.033-0.053,0.123-0.092,0.268   c-0.033,0.109-0.08,0.213-0.143,0.312c-0.07,0.105-0.139,0.166-0.205,0.188c-0.104,0.031-0.184-0.031-0.234-0.189   c0.211-0.182,0.359-0.432,0.451-0.746c0.064-0.229,0.068-0.41,0.014-0.547c-0.035-0.09-0.104-0.162-0.199-0.219   c-0.088-0.051-0.178-0.059-0.275-0.023c-0.148,0.051-0.279,0.197-0.398,0.438c-0.084,0.168-0.152,0.367-0.205,0.6   c-0.053,0.229-0.086,0.361-0.102,0.391c-0.031,0.057-0.039,0.102-0.023,0.135c0.01,0.025,0.027,0.049,0.053,0.068   c0.031,0.018,0.055,0.023,0.076,0.018c0.02-0.008,0.041-0.041,0.064-0.102c-0.008,0.031-0.01,0.062-0.008,0.096   c0.004,0.023,0.018,0.072,0.037,0.146c0.016,0.068,0.062,0.143,0.137,0.223c0.09,0.096,0.184,0.158,0.285,0.184   c0.074,0.021,0.148,0.016,0.225-0.01c0.246-0.088,0.451-0.35,0.611-0.789c0.086-0.24,0.117-0.391,0.092-0.451   c-0.006-0.018-0.018-0.029-0.033-0.037C32.84,42.123,32.812,42.121,32.793,42.127z M32.074,41.916   c0.039-0.223,0.08-0.342,0.123-0.357c0.027-0.01,0.051,0.008,0.068,0.053c0.043,0.102,0.047,0.211,0.014,0.328   c-0.057,0.197-0.104,0.303-0.141,0.316c-0.035,0.012-0.061,0-0.076-0.037C32.039,42.158,32.043,42.059,32.074,41.916z"/><polygon fill="#000000" points="74.24,44.562 71.824,45.312 71.789,45.674 74.809,44.738  "/><path fill="#000000" d="M63.359,36.398l-1.16,1.932c-0.016,0.027-0.018,0.084,0.004,0.121l1.213,2.121l1.16-1.932   c0.018-0.027,0.018-0.086-0.002-0.121L63.359,36.398z M63.287,37.041c0.07-0.119,0.189-0.109,0.262,0.02   c0.074,0.131,0.076,0.334,0.006,0.451c-0.072,0.119-0.191,0.111-0.264-0.02C63.217,37.361,63.215,37.16,63.287,37.041z    M62.828,38.719c-0.07,0.119-0.189,0.109-0.264-0.02c-0.072-0.131-0.074-0.332-0.004-0.451c0.071-0.119,0.188-0.109,0.264,0.02   C62.898,38.398,62.9,38.6,62.828,38.719z M62.928,38.096c-0.072-0.131-0.076-0.332-0.004-0.451c0.07-0.119,0.189-0.111,0.264,0.021   c0.072,0.129,0.074,0.33,0.004,0.449C63.122,38.234,63.002,38.225,62.928,38.096z M63.492,39.889   c-0.07,0.119-0.189,0.109-0.262-0.021c-0.074-0.129-0.076-0.332-0.006-0.451c0.071-0.119,0.188-0.109,0.264,0.021   C63.562,39.568,63.564,39.77,63.492,39.889z M63.855,39.285c-0.072,0.119-0.189,0.109-0.265-0.02   c-0.073-0.133-0.075-0.332-0.004-0.451c0.072-0.119,0.188-0.109,0.265,0.02C63.926,38.965,63.928,39.166,63.855,39.285z    M64.217,38.682c-0.07,0.119-0.188,0.109-0.262-0.021c-0.074-0.129-0.076-0.332-0.006-0.449c0.072-0.119,0.189-0.111,0.264,0.02   C64.288,38.363,64.289,38.562,64.217,38.682z"/><path fill="#000000" d="M75.357,42.748c-0.012-0.035-0.055-0.076-0.09-0.088l-2.164-0.664l0.725,2.117   c0.012,0.035,0.053,0.076,0.09,0.088l2.162,0.664L75.357,42.748z M73.49,42.535c-0.047-0.137,0.031-0.215,0.172-0.172   c0.141,0.043,0.295,0.191,0.342,0.33c0.047,0.139-0.029,0.215-0.17,0.172C73.691,42.822,73.539,42.674,73.49,42.535z M74.26,44.109   c-0.143-0.043-0.297-0.191-0.344-0.33c-0.047-0.139,0.029-0.215,0.17-0.172c0.143,0.045,0.297,0.191,0.344,0.33   C74.477,44.074,74.4,44.152,74.26,44.109z M74.785,42.928c-0.047-0.139,0.029-0.215,0.172-0.172c0.141,0.043,0.293,0.189,0.34,0.33   c0.049,0.137-0.027,0.215-0.17,0.172C74.986,43.213,74.832,43.066,74.785,42.928z M75.553,44.502   c-0.141-0.043-0.295-0.191-0.342-0.33c-0.047-0.139,0.027-0.215,0.17-0.172c0.141,0.043,0.295,0.191,0.342,0.33   C75.77,44.469,75.695,44.545,75.553,44.502z"/><path fill="#000000" d="M85.963,31.35l-1.045,0.162l-1.014,0.158l-0.412,0.064c-0.23,0.035-0.178,0.367,0.053,0.332l0.412-0.064   l1.014-0.158l1.045-0.162C86.246,31.645,86.195,31.314,85.963,31.35z"/><path fill="#000000" d="M12.062,56.395c-1.348,0-2.621-0.176-3.691-0.535c0.691,1.193,1.957,1.994,3.406,1.994   c0.969,0,1.855-0.356,2.543-0.951l-0.27-0.631C13.381,56.352,12.713,56.395,12.062,56.395z"/><path fill="#000000" d="M34.85,41.148c-0.02,0.01-0.035,0.045-0.043,0.105l-0.021,0.141c-0.059,0.184-0.117,0.287-0.176,0.314   c-0.018,0.008-0.031-0.002-0.045-0.029c-0.029-0.061-0.053-0.299-0.07-0.711c-0.014-0.295-0.037-0.475-0.068-0.541   c-0.01-0.025-0.025-0.043-0.043-0.057c-0.1-0.068-0.178-0.09-0.238-0.062c-0.037,0.018-0.074,0.057-0.107,0.119l-0.094,0.182   c-0.051,0.09-0.111,0.26-0.184,0.51c-0.031,0.104-0.062,0.221-0.096,0.35c0.01-0.162,0.008-0.27-0.004-0.324   c-0.021-0.094-0.066-0.191-0.139-0.289c-0.031-0.045-0.082-0.086-0.148-0.117c-0.064-0.035-0.119-0.049-0.164-0.041   c-0.066,0.01-0.107,0.207-0.123,0.596c-0.037,0.355-0.074,0.646-0.105,0.875c0,0.055,0.004,0.092,0.014,0.113   c0.012,0.023,0.029,0.027,0.057,0.016c0.043-0.02,0.105-0.279,0.184-0.775c0.027,0.453,0.045,0.738,0.055,0.859   c0,0.008,0,0.082-0.002,0.221c0,0.088,0.01,0.154,0.031,0.201c0.049,0.102,0.113,0.135,0.193,0.098   c0.059-0.025,0.113-0.092,0.16-0.197c0.045-0.107,0.072-0.221,0.082-0.338c0.008-0.117,0.035-0.309,0.08-0.572   c0.037-0.23,0.066-0.383,0.084-0.453c0.018-0.076,0.045-0.123,0.084-0.139c0.014-0.008,0.025-0.004,0.033,0.01   c0.006,0.014,0.01,0.031,0.01,0.055c0.021,0.604,0.068,0.961,0.143,1.076c0.072,0.115,0.176,0.146,0.305,0.086   c0.059-0.025,0.109-0.066,0.15-0.117c0.041-0.055,0.098-0.197,0.174-0.424c0.066-0.201,0.109-0.35,0.127-0.449   c0.02-0.1,0.018-0.174-0.006-0.223C34.91,41.156,34.881,41.135,34.85,41.148z"/><path fill="#000000" d="M32.094,38.275c-0.039-0.004-0.09,0.049-0.15,0.156c-0.053,0.094-0.109,0.137-0.168,0.135   c-0.021-0.002-0.043-0.012-0.064-0.031c-0.031-0.027-0.045-0.1-0.047-0.211l0.008-0.137c0.002-0.053-0.004-0.1-0.016-0.135   c-0.014-0.045-0.061-0.068-0.133-0.074c-0.041-0.002-0.098,0.002-0.172,0.014c0.094-0.104,0.168-0.166,0.223-0.193   c0.014-0.004,0.035,0.004,0.062,0.021l0.078,0.049c0.066,0.029,0.115,0.047,0.143,0.047c0.092,0.006,0.162-0.055,0.211-0.184   c0.035-0.092,0.049-0.174,0.041-0.24c-0.014-0.127-0.096-0.205-0.248-0.236c-0.15-0.033-0.428,0.207-0.83,0.721l0.412-1.326   c0.031-0.074,0.014-0.168-0.053-0.281c-0.111-0.193-0.205-0.293-0.281-0.297c-0.07-0.004-0.148,0.158-0.229,0.488   c-0.053,0.207-0.158,0.465-0.316,0.768c-0.127,0.24-0.238,0.426-0.334,0.557c-0.086,0.115-0.15,0.209-0.197,0.277   c-0.031-0.023-0.059-0.035-0.076-0.031c-0.01,0-0.027,0.016-0.057,0.049c-0.029,0.029-0.076,0.109-0.143,0.234   c-0.051,0.098-0.115,0.186-0.193,0.262c-0.09,0.084-0.17,0.129-0.24,0.133c-0.1,0.008-0.166-0.057-0.197-0.193   c-0.031-0.129-0.023-0.312,0.021-0.551c0.074-0.371,0.168-0.562,0.285-0.576c0.031-0.002,0.064,0.008,0.098,0.031   c-0.059,0.018-0.096,0.059-0.109,0.119c-0.01,0.043-0.01,0.086,0,0.129c0.031,0.131,0.107,0.191,0.225,0.18   c0.082-0.01,0.146-0.07,0.191-0.182c0.035-0.094,0.043-0.188,0.021-0.285c-0.023-0.096-0.072-0.18-0.148-0.252   c-0.023-0.025-0.066-0.049-0.127-0.068c-0.082-0.027-0.166-0.037-0.246-0.029c-0.18,0.02-0.332,0.119-0.455,0.303   c-0.102,0.145-0.201,0.324-0.301,0.537c-0.07,0.152-0.121,0.256-0.154,0.312c-0.02-0.041-0.053-0.057-0.098-0.045   c-0.037,0.01-0.062,0.039-0.078,0.084c-0.029,0.09-0.062,0.174-0.092,0.252c-0.027,0.062-0.057,0.1-0.086,0.107   c-0.064,0.018-0.1-0.037-0.109-0.172c0.012-0.311,0.027-0.586,0.041-0.826c0.006-0.154-0.002-0.26-0.023-0.314   c-0.021-0.062-0.072-0.086-0.152-0.068c-0.059,0.01-0.131,0.059-0.213,0.146c-0.08,0.086-0.127,0.16-0.139,0.219   c-0.086,0.379-0.164,0.67-0.236,0.871c-0.037,0.098-0.07,0.162-0.104,0.189c-0.029,0.021-0.053,0.012-0.066-0.029   c-0.01-0.027-0.012-0.064-0.008-0.109c0.01-0.248,0.014-0.439,0.014-0.57c0.002-0.047-0.004-0.086-0.016-0.117   c-0.014-0.043-0.059-0.1-0.131-0.172c-0.131-0.129-0.219-0.188-0.266-0.176c-0.025,0.008-0.047,0.035-0.062,0.08   c-0.135,0.451-0.246,0.844-0.346,1.195c-0.027-0.02-0.055-0.023-0.082-0.004c-0.029,0.021-0.045,0.068-0.043,0.141   c0.01,0.285-0.049,0.506-0.178,0.656c-0.045,0.053-0.104,0.104-0.174,0.152c-0.123,0.084-0.262,0.148-0.42,0.197   c0.016-0.342-0.033-0.719-0.145-1.131c0.162-0.236,0.273-0.523,0.334-0.863c0.064-0.379,0.039-0.715-0.074-1.008   c-0.047-0.123-0.109-0.217-0.186-0.279c-0.111-0.092-0.238-0.09-0.381,0.006c-0.232,0.16-0.369,0.475-0.404,0.938   c-0.029,0.34-0.008,0.709,0.066,1.107l0.049,0.248c-0.178,0.078-0.332,0.088-0.463,0.029c-0.119-0.055-0.232-0.176-0.336-0.361   c-0.111-0.203-0.146-0.42-0.102-0.648c0.041-0.205,0.129-0.354,0.26-0.441c0.08-0.055,0.152-0.09,0.223-0.107   c0.018,0,0.031-0.006,0.045-0.016c0.059-0.039,0.066-0.088,0.027-0.15c-0.016-0.029-0.047-0.043-0.088-0.045   c-0.102,0-0.213,0.041-0.338,0.127c-0.156,0.105-0.26,0.293-0.309,0.562c-0.062,0.318-0.006,0.617,0.17,0.9   c0.232,0.377,0.553,0.508,0.959,0.389c0.07,0.322,0.105,0.611,0.104,0.867c-0.264,0.055-0.461,0.127-0.588,0.213   c-0.131,0.09-0.205,0.201-0.223,0.334c-0.016,0.117,0.012,0.234,0.084,0.352c0.074,0.119,0.184,0.189,0.326,0.213   c0.166,0.027,0.34-0.021,0.521-0.146c0.197-0.133,0.334-0.355,0.412-0.666c0.354-0.002,0.619-0.062,0.793-0.184   c0.137-0.092,0.215-0.283,0.238-0.574c0.008-0.102,0.006-0.287,0.014-0.559c0.033-0.01,0.113-0.24,0.238-0.693   c-0.033,0.246-0.057,0.461-0.068,0.646c-0.012,0.203,0.006,0.375,0.057,0.512c0.053,0.148,0.137,0.209,0.25,0.18   c0.172-0.045,0.381-0.459,0.625-1.244c-0.008,0.25-0.012,0.443-0.014,0.578c0.002,0.041,0.01,0.082,0.025,0.125   c0.031,0.086,0.078,0.154,0.141,0.207c0.072,0.057,0.146,0.076,0.219,0.057c0.051-0.016,0.098-0.047,0.141-0.096   c0.176-0.191,0.32-0.473,0.441-0.832c0.025,0.025,0.049,0.035,0.072,0.033c0.025-0.002,0.053-0.029,0.084-0.08   c-0.012,0.027-0.02,0.057-0.021,0.086c-0.002,0.025,0,0.074,0.008,0.148c0.006,0.068,0.041,0.148,0.104,0.24   c0.072,0.113,0.158,0.191,0.254,0.238c0.074,0.037,0.152,0.051,0.234,0.043c0.268-0.027,0.52-0.232,0.752-0.615   c0.043-0.072,0.08-0.135,0.105-0.189c0.014,0.008,0.029,0.012,0.049,0.014c0.059,0.004,0.227-0.242,0.508-0.742   c-0.293,0.766-0.434,1.203-0.42,1.312c0.01,0.096,0.076,0.145,0.195,0.152c0.068,0.004,0.123-0.008,0.16-0.033   c0.037-0.029,0.111-0.131,0.223-0.305l0.229-0.365c0.035-0.053,0.062-0.08,0.082-0.078c0.021,0.002,0.035,0.027,0.039,0.08   c0.008,0.053,0.002,0.141-0.014,0.266c-0.014,0.123-0.016,0.209-0.006,0.256c0.033,0.145,0.111,0.221,0.236,0.229   c0.125,0.006,0.254-0.041,0.391-0.143c0.08-0.059,0.18-0.17,0.301-0.334l0.193-0.271c0.016-0.02,0.021-0.043,0.018-0.07   c-0.002-0.023-0.014-0.047-0.035-0.07C32.129,38.291,32.111,38.277,32.094,38.275z M24.561,40.893   c-0.055,0.037-0.117,0.051-0.188,0.039c-0.068-0.016-0.125-0.057-0.166-0.125c-0.074-0.119-0.051-0.217,0.064-0.297   c0.105-0.072,0.268-0.111,0.488-0.117C24.732,40.654,24.664,40.82,24.561,40.893z M24.855,37.318   c-0.006-0.123,0.012-0.236,0.051-0.332c0.016-0.041,0.045-0.074,0.086-0.104c0.041-0.027,0.084-0.029,0.131-0.006   c0.047,0.02,0.086,0.055,0.115,0.104c0.104,0.166,0.135,0.439,0.092,0.82c-0.039,0.34-0.105,0.594-0.197,0.766   C24.963,38,24.869,37.584,24.855,37.318z"/><path fill="#000000" d="M23.953,38.113c-0.033,0.168-0.008,0.307,0.062,0.434c0.086,0.154,0.152,0.207,0.191,0.225   c0.031,0.014,0.076,0.023,0.141,0.014l-0.006-0.033c-0.062-0.34-0.096-0.686-0.082-1.018   C24.088,37.799,23.992,37.924,23.953,38.113z"/><path fill="#000000" d="M26.562,28.291c0,0-0.471,0.043-3.303,0.799c-1.316,0.352-5.443,1.865-5.443,1.865   c-3.07,1.227-5.385,3.076-6.615,4.596c-0.555,0.574-1.029,1.404-1.398,2.43c0.385,1.141,0.627,1.932,0.635,1.961L10.51,40.2   c0.514-1.754,1.412-2.936,2.549-3.02c2.033-0.15,3.814,3.271,4.119,7.408c0.303,4.09-0.926,7.699-2.916,7.928   c0.559,1.414,1.145,2.885,1.65,4.144c3.189,1.375,7.262,1.627,11.711,1.627c1.227,0,2.426-0.093,3.586-0.269l0.076-0.012   c2.107-0.467,5.168-6.25,5.484-13.984C37.117,35.48,31.223,27.523,26.562,28.291z M17.801,37.641   c0.16,0.803-0.025,1.053-0.15,0.762c-0.723-1.732-1.586-3.045-2.604-3.709l-0.158-0.092c-1.555-1.438,4.412-3.744,11.688-5.594   c1.406-0.359,2.576,0.551,2.682,0.633c2.9,2.197,0.133,0.871-5.047,2.578C19.139,33.891,17.369,35.486,17.801,37.641z    M19.262,43.105c-0.168,0.043-0.273-0.418-0.414-0.992c-0.152-0.617-0.145-1.018,0.021-1.061S19.26,41.436,19.367,42   C19.475,42.568,19.428,43.062,19.262,43.105z M34.684,51.947c-0.443,1.035-0.23,1.578-2.707,1.387   c-6.389-0.496-10.992-2.242-11.158-2.564c-0.482-0.938,1.508,0.72,13.738,0.566C34.865,51.332,34.824,51.465,34.684,51.947z    M34.832,42.508c-0.121,0.154-0.533,0.426-0.828-0.037c-0.039,0.145-0.068,0.271-0.117,0.385c-0.199,0.443-0.754,0.453-0.828-0.145   l-0.02,0.053c-0.211,0.576-0.801,1.398-1.486,0.654c-0.053-0.057-0.105-0.119-0.146-0.191c-0.008,0.018-0.016,0.035-0.023,0.049   c-0.09,0.168-0.244,0.293-0.439,0.314c-0.217,0.371-0.645,0.885-1.152,0.531c-0.166-0.119-0.275-0.295-0.328-0.479   c-0.064,0.084-0.111,0.162-0.148,0.225c-0.305,0.506-1.031,1.172-1.615,0.324c-0.066-0.096-0.127-0.207-0.152-0.328   c-0.018-0.014-0.035-0.027-0.055-0.045c-0.051-0.051-0.086-0.104-0.109-0.156c-0.008,0.035-0.016,0.068-0.023,0.1   c-0.193,0.67-0.67,0.982-1.367,0.955c-0.377-0.016-0.719-0.141-0.979-0.422c-0.324-0.355-0.434-0.9-0.242-1.277   c0.16-0.326,0.594-0.461,0.945-0.119c0.164,0.172,0.312,0.508,0.174,0.758l-0.107,0.172c0.025,0.016,0.064,0.02,0.09,0.018   c0.219-0.02,0.283-0.09,0.303-0.141c0.066-0.172,0.023-0.611-0.01-0.889c-0.291-0.137-0.535-0.332-0.717-0.602   c-0.189-0.275-0.344-0.779,0.037-0.842c0.182-0.029,0.346,0.062,0.457,0.262l0.084,0.199c0.021,0.053,0.059,0.105,0.117,0.158   c0.039-0.311,0.137-0.574,0.305-0.777c0.197-0.242,0.465-0.367,0.787-0.377c0.195-0.008,0.387,0.055,0.564,0.193   c0.232,0.18,0.359,0.439,0.398,0.736c0.012,0.105,0.008,0.205-0.012,0.301c0.221-0.152,0.492-0.213,0.764,0.01   c0.238,0.191,0.311,0.416,0.307,0.627c0.072-0.217,0.156-0.461,0.252-0.73c0.078-0.168,0.414-0.555,0.766-0.252   c0.062-0.133,0.154-0.234,0.291-0.27c0.133-0.033,0.268,0.012,0.385,0.123c0.104,0.094,0.176,0.221,0.219,0.346   c0.018,0.074,0.033,0.146,0.041,0.219c0.025-0.072,0.045-0.121,0.057-0.127c0.051-0.188,0.113-0.359,0.189-0.51   c0.17-0.35,0.516-0.744,0.959-0.488c0.262,0.152,0.363,0.373,0.391,0.592l0.045-0.395c0.006-0.176,0.012-0.477,0.111-0.65   c-0.123,0.129-0.244,0.223-0.363,0.271c-0.256,0.111-0.605,0.082-0.85-0.307c-0.35-0.543,0.049-0.994,0.316-1.189   c0.145-0.107,0.318-0.203,0.514-0.289c0-0.078-0.004-0.17-0.008-0.273c-0.045,0.029-0.104,0.049-0.18,0.037   c-0.047-0.008-0.088-0.02-0.125-0.039l-0.104,0.148c-0.123,0.166-0.238,0.299-0.34,0.375c-0.271,0.205-0.801,0.322-0.979-0.191   c-0.08,0.117-0.15,0.209-0.201,0.25c-0.172,0.123-0.648,0.113-0.736-0.305c-0.238,0.293-0.621,0.596-1.062,0.377   c-0.156-0.078-0.275-0.201-0.381-0.357c-0.094,0.191-0.197,0.355-0.318,0.486c-0.145,0.162-0.389,0.252-0.654,0.041   c-0.045-0.039-0.088-0.084-0.125-0.133c-0.129,0.268-0.273,0.475-0.447,0.52c-0.148,0.039-0.273-0.004-0.371-0.088   c-0.119,0.623-0.557,0.742-1.059,0.764c-0.16,0.459-0.561,0.902-1.107,0.814c-0.383-0.062-0.715-0.467-0.654-0.918   c0.062-0.459,0.516-0.617,0.803-0.689c-0.006-0.104-0.018-0.215-0.035-0.33c-0.809,0.035-1.34-0.902-1.188-1.697   c0.078-0.424,0.367-0.863,0.842-0.859c0.088,0.004,0.158,0.027,0.215,0.064c0.08-0.258,0.211-0.459,0.398-0.586   c0.18-0.123,0.412-0.168,0.641,0.023c0.133,0.107,0.223,0.256,0.285,0.418c0.141,0.363,0.162,0.76,0.094,1.174   c-0.059,0.324-0.16,0.613-0.309,0.857c0.053,0.221,0.09,0.434,0.111,0.637c0.072-0.045,0.137-0.096,0.186-0.152   c0.084-0.1,0.135-0.254,0.125-0.49c-0.004-0.115,0.027-0.305,0.176-0.363c0.088-0.316,0.191-0.668,0.307-1.059   c0.129-0.387,0.453-0.199,0.688,0.037c0.053,0.051,0.105,0.105,0.146,0.168l0.033-0.148c0.027-0.129,0.111-0.236,0.193-0.324   c0.088-0.094,0.189-0.182,0.312-0.203c0.43-0.086,0.5,0.369,0.492,0.713l-0.016,0.227c0.021-0.006,0.043-0.01,0.068-0.01l0.07-0.15   c0.104-0.221,0.209-0.41,0.318-0.568c0.201-0.293,0.523-0.475,0.926-0.342c0.064,0.021,0.158,0.057,0.236,0.137   c0.16,0.156,0.244,0.35,0.258,0.541c0.088-0.135,0.172-0.27,0.25-0.418c0.154-0.297,0.25-0.535,0.295-0.717   c0.141-0.562,0.438-1.051,0.932-0.195c0.09,0.158,0.154,0.357,0.082,0.539l-0.078,0.25c0.402-0.205,0.879,0.189,0.732,0.748   l0.041-0.096c0.057-0.139,0.117-0.281,0.172-0.418c0.162-0.338,0.395-0.346,0.582-0.186c0.006-0.031,0.012-0.061,0.018-0.092   c0.111-0.4,0.516-0.338,0.746-0.064c0.238,0.273,0.24,0.713,0.213,0.986c0.229,0.012,0.445,0.287,0.311,0.617   c-0.08,0.207-0.23,0.426-0.434,0.66c-0.094,0.104-0.189,0.188-0.295,0.248c-0.078,0.182-0.158,0.342-0.242,0.479   c-0.129,0.211-0.254,0.393-0.379,0.539c0.025-0.016,0.053-0.027,0.084-0.031c0.107-0.016,0.209,0.016,0.301,0.066   c0.072,0.035,0.145,0.084,0.209,0.152c0.031-0.084,0.061-0.152,0.092-0.207l0.094-0.182c0.143-0.268,0.377-0.297,0.652-0.109   c0.215,0.162,0.234,0.514,0.244,0.744c0.262-0.145,0.525,0.27,0.447,0.645c-0.02,0.105-0.062,0.266-0.135,0.48   C34.967,42.238,34.896,42.42,34.832,42.508z"/><path fill="#000000" d="M29.344,38.5c0.014-0.01,0.031-0.025,0.051-0.041c0.062-0.064,0.115-0.133,0.154-0.211l0.018-0.033   c-0.061-0.01-0.121-0.037-0.178-0.084C29.365,38.248,29.344,38.373,29.344,38.5z"/><path fill="#000000" d="M27.965,41.758c-0.029-0.225-0.121-0.396-0.273-0.514c-0.123-0.098-0.26-0.145-0.404-0.137   c-0.273,0.008-0.49,0.111-0.652,0.309c-0.186,0.227-0.277,0.553-0.271,0.982c-0.273-0.111-0.455-0.273-0.545-0.486l-0.08-0.182   c-0.033-0.061-0.078-0.09-0.135-0.092c-0.014-0.002-0.029,0-0.045,0.002c-0.057,0.008-0.08,0.053-0.068,0.133   c0.01,0.086,0.055,0.188,0.133,0.301c0.174,0.254,0.424,0.441,0.75,0.559l0.016,0.123c0.072,0.551,0.072,0.916,0.006,1.092   c-0.062,0.156-0.217,0.244-0.465,0.266c-0.025,0.002-0.049,0.002-0.07,0.002c-0.18-0.008-0.281-0.109-0.307-0.309   c-0.01-0.062,0-0.113,0.025-0.156l0.105-0.172c0.021-0.035,0.027-0.082,0.021-0.139c-0.012-0.094-0.057-0.178-0.129-0.254   c-0.084-0.082-0.18-0.121-0.285-0.115c-0.141,0.006-0.244,0.076-0.311,0.209c-0.061,0.121-0.08,0.26-0.059,0.422   c0.025,0.199,0.104,0.371,0.238,0.518c0.188,0.205,0.453,0.314,0.793,0.328c0.623,0.025,1.016-0.244,1.178-0.809   c0.055-0.195,0.049-0.506-0.021-0.928c0.254-0.051,0.467-0.17,0.637-0.359C27.918,42.16,27.99,41.963,27.965,41.758z    M27.531,42.143c-0.102,0.176-0.256,0.289-0.461,0.336l-0.051-0.264c-0.053-0.287-0.029-0.514,0.068-0.676   c0.072-0.119,0.15-0.178,0.232-0.174c0.17,0.008,0.271,0.139,0.307,0.393C27.641,41.875,27.609,42.002,27.531,42.143z"/><path fill="#000000" d="M31.1,42.758c-0.033,0.137-0.064,0.209-0.092,0.217c-0.047,0.01-0.076,0.006-0.088-0.016   c0.086-0.396,0.096-0.729,0.027-0.994c-0.027-0.076-0.068-0.141-0.123-0.193c-0.055-0.051-0.111-0.068-0.168-0.055   c-0.127,0.031-0.211,0.193-0.252,0.484c-0.039,0.266-0.029,0.494,0.023,0.682c0.041,0.143,0.098,0.25,0.17,0.322   c-0.082,0.199-0.166,0.309-0.252,0.33c-0.066,0.018-0.115-0.018-0.145-0.104c-0.01-0.031-0.016-0.062-0.014-0.094   c0.041-0.428,0.064-0.766,0.072-1.01c0.006-0.143,0.002-0.234-0.012-0.277c-0.016-0.039-0.037-0.074-0.068-0.104   c-0.055-0.055-0.125-0.072-0.211-0.051c-0.102,0.027-0.184,0.102-0.24,0.227c-0.137,0.381-0.246,0.705-0.33,0.973   c-0.033,0.086-0.041,0.154-0.023,0.203c0.02,0.057,0.055,0.078,0.104,0.066c0.033-0.01,0.117-0.238,0.25-0.688l-0.066,0.691   c-0.008,0.088,0.004,0.178,0.033,0.264c0.039,0.113,0.104,0.203,0.193,0.268c0.092,0.064,0.188,0.082,0.287,0.057   c0.215-0.055,0.42-0.268,0.615-0.639c0.047,0.008,0.09,0.006,0.131-0.006c0.109-0.027,0.193-0.098,0.254-0.209   c0.021-0.037,0.051-0.121,0.092-0.252c0.021-0.072,0.029-0.121,0.02-0.146c-0.02-0.057-0.055-0.078-0.104-0.066   C31.145,42.648,31.117,42.688,31.1,42.758z"/><path fill="#000000" d="M29.162,43.211c-0.008,0-0.025,0.016-0.053,0.047c-0.025,0.027-0.07,0.107-0.135,0.236   c-0.051,0.098-0.113,0.186-0.193,0.268c-0.088,0.086-0.166,0.133-0.236,0.139c-0.111,0.01-0.182-0.064-0.209-0.227   c0.242-0.133,0.432-0.34,0.572-0.621c0.102-0.205,0.135-0.377,0.1-0.518c-0.021-0.092-0.08-0.176-0.168-0.25   c-0.08-0.064-0.172-0.09-0.277-0.078c-0.156,0.02-0.314,0.133-0.473,0.34c-0.111,0.143-0.213,0.318-0.301,0.527   c-0.09,0.209-0.143,0.328-0.164,0.354c-0.039,0.047-0.055,0.088-0.047,0.123c0.008,0.025,0.023,0.051,0.047,0.076   c0.025,0.023,0.051,0.033,0.072,0.031s0.049-0.031,0.082-0.084c-0.014,0.029-0.021,0.059-0.023,0.09   c0.002,0.025,0.006,0.072,0.014,0.148c0.008,0.066,0.043,0.146,0.107,0.238c0.076,0.111,0.162,0.188,0.26,0.232   c0.072,0.033,0.148,0.045,0.23,0.035c0.264-0.033,0.512-0.242,0.744-0.629c0.125-0.211,0.18-0.348,0.164-0.412   c-0.004-0.018-0.016-0.031-0.029-0.041C29.211,43.217,29.184,43.207,29.162,43.211z M28.465,42.863   c0.074-0.203,0.133-0.309,0.18-0.314c0.031-0.004,0.051,0.018,0.062,0.064c0.027,0.105,0.014,0.209-0.039,0.316   c-0.088,0.176-0.152,0.268-0.191,0.271c-0.037,0.004-0.061-0.012-0.07-0.051C28.391,43.09,28.41,42.994,28.465,42.863z"/><path fill="#000000" d="M27.375,42.928c0.016,0.121,0.025,0.238,0.029,0.346c0.01-0.016,0.021-0.031,0.033-0.047l0.029-0.064   c0.023-0.051,0.059-0.129,0.104-0.238l0.049-0.109C27.543,42.859,27.463,42.896,27.375,42.928z"/><path fill="#000000" d="M33.482,39.227c0.102-0.047,0.203-0.127,0.303-0.238c0.199-0.229,0.33-0.428,0.396-0.6   c0.021-0.053,0.029-0.096,0.02-0.131c-0.008-0.041-0.033-0.059-0.076-0.057c-0.047,0.004-0.08,0.029-0.1,0.08   c-0.09,0.232-0.229,0.441-0.42,0.623c0.104-0.307,0.18-0.619,0.232-0.938c0.039-0.227,0.037-0.432-0.002-0.615   c-0.025-0.109-0.062-0.191-0.113-0.25c-0.072-0.086-0.145-0.127-0.217-0.121c-0.074,0.006-0.123,0.051-0.146,0.133   c-0.027,0.115-0.029,0.229-0.004,0.338c0.002,0.016,0.021,0.066,0.057,0.152c0.033,0.086,0.059,0.168,0.076,0.244   c0.033,0.154,0.043,0.324,0.027,0.506c-0.023,0.285-0.066,0.518-0.131,0.697c-0.041,0.02-0.076,0.033-0.107,0.041   c0.012-0.301-0.002-0.623-0.033-0.965c-0.02-0.207-0.043-0.373-0.072-0.498c-0.055-0.252-0.141-0.373-0.254-0.363   c-0.064,0.006-0.121,0.059-0.172,0.16c-0.055,0.139-0.111,0.277-0.17,0.416c-0.105,0.244-0.184,0.408-0.234,0.492   c-0.027,0.047-0.037,0.092-0.027,0.137c0.01,0.047,0.033,0.072,0.066,0.074c0.037,0.006,0.068-0.02,0.096-0.078   c0.09-0.184,0.148-0.277,0.176-0.279c0.012,0,0.023,0.006,0.033,0.016c0.045,0.047,0.072,0.102,0.086,0.162   c0.012,0.051,0.02,0.121,0.023,0.213c0.018,0.299,0.025,0.525,0.023,0.676c-0.24,0.094-0.441,0.199-0.6,0.318   c-0.285,0.209-0.402,0.436-0.35,0.676c0.012,0.051,0.033,0.102,0.064,0.15c0.102,0.16,0.232,0.234,0.395,0.221   c0.053-0.004,0.104-0.018,0.154-0.039c0.207-0.084,0.455-0.363,0.744-0.838C33.314,39.6,33.4,39.428,33.482,39.227z M32.809,39.59   c-0.045,0.482-0.189,0.754-0.43,0.811c-0.133,0.012-0.213-0.045-0.238-0.166c-0.012-0.051-0.012-0.107,0-0.174   c0.041-0.236,0.266-0.438,0.674-0.602C32.814,39.525,32.812,39.568,32.809,39.59z"/><path fill="#000000" d="M39.48,75.588c0.691,1.193,1.957,1.994,3.406,1.994c1.336,0,2.518-0.682,3.236-1.725   c-0.99,0.174-1.988,0.266-2.951,0.266C41.824,76.123,40.551,75.947,39.48,75.588z"/><path fill="#000000" d="M72.191,42.604c-0.021,0.121-0.043,0.24-0.064,0.361l0.961-0.236l-0.109-0.318L72.191,42.604z"/><path fill="#000000" d="M73.648,41.043l-1.172,0.25c-0.031,0.121-0.06,0.242-0.088,0.361l0.799-0.17L73.648,41.043z"/><path fill="#000000" d="M70.406,25.242c0,0-0.986,0.023-1.203,0.047c-0.139,0.016-0.27,0.076-0.377,0.164   c-0.02,0.018-0.033,0.029-0.033,0.029l-1.938,2.105c-0.047,0.051-0.033,0.109,0.031,0.135c0.678,0.268,1.575,0.605,2.284,0.717   c0.455,0.07,1.57,0.078,1.57,0.078c0.045,0,0.084-0.039,0.084-0.084c0-0.768-0.009-2.508-0.345-3.146   C70.473,25.268,70.426,25.242,70.406,25.242z"/><path fill="#000000" d="M67.689,24.006c-0.801-0.338-1.287,0.088-1.629,0.578c-0.168,0.238-0.584,0.738-0.959,1.178   c-0.375,0.441-0.709,0.824-0.709,0.824c-0.047,0.051-0.031,0.109,0.032,0.133L66.1,27.34c0.023,0.01,0.076-0.004,0.094-0.023   l1.677-2.012C68.152,24.898,68.291,24.258,67.689,24.006z"/><path fill="#000000" d="M83.906,24.299l0.469-0.02l1.277-0.055l0.875-0.037c0.231-0.01,0.219-0.346-0.014-0.336l-0.875,0.037   l-1.277,0.055l-0.471,0.02C83.658,23.973,83.674,24.309,83.906,24.299z"/><path fill="#000000" d="M83.863,26.746l0.287-0.021l1.309-0.107l0.977-0.08c0.234-0.02,0.205-0.354-0.026-0.334l-0.979,0.08   l-1.307,0.105l-0.287,0.023C83.604,26.432,83.631,26.766,83.863,26.746z"/><polygon fill="#000000" points="71.926,44.363 73.498,43.924 73.389,43.607 71.973,44.002  "/><path fill="#000000" d="M56.863,45.184L56.57,44.94c0.305-1.535,0.469-3.182,0.469-4.895c0-0.342-0.006-0.678-0.02-1.008   c-1.914-1.057-3.945-2.438-5.967-4.24l-7.646,1.047c0.383,1.393,0.643,2.937,0.756,4.619c0.219,3.271-0.18,6.359-1.049,8.99   c2.57-0.943,6.074-1.129,9.705-0.934l0.289,0.355c-6.479-0.391-12.539,0.4-13.604,4.438c-0.402,1.52,0.09,2.543,0.904,3.25   l-0.145,0.008l-0.322,0.012c-0.746-0.771-1.158-1.859-0.764-3.355c0.455-1.723,1.746-2.883,3.561-3.628   c-0.008-0.029-0.008-0.062,0.004-0.1c0.891-2.617,1.307-5.719,1.084-9.012c-0.113-1.684-0.371-3.217-0.754-4.596l-6.592,0.902   c0.793,2.246,1.227,4.734,1.125,7.242c-0.223,5.496-1.848,10.166-3.627,12.58c-0.061,0.081-0.121,0.161-0.184,0.239   c-0.068,0.086-0.137,0.17-0.207,0.25c0.523,0.021,1.062,0.033,1.615,0.043l6.273,10.359c-0.436,0.145-0.895,0.314-1.355,0.514   c-4.379,1.879-4.699,4.318-2.887,5.974c0.172,0.155,0.359,0.305,0.566,0.444c2.576,1.756,7.838,2.258,12.68-0.664   c2.296-1.389,3.693-2.362,4.266-3.082c0.06-0.073,0.11-0.146,0.151-0.215l12.638-3.541c4.002,1.959,7.409,3.539,8.989,4.056   c4.974,1.62,14.123,4.596,19.188,2.836c2.093-0.728,2.625-1.892,1.748-3.318c-0.729-1.954-3.351-4.301-8.437-6.637   c-6.164-2.834-11.336-5.244-14.461-6.744c0.039-0.106-0.006-0.244-0.162-0.319l-8.506-4.146L64.54,51.54   c1.606-0.703,5.108-2.225,7.739-3.311c2.025-0.836,3.867-1.617,5.574-2.293l-0.086,0.732c-0.426,0.275-0.785,0.703-0.961,1.238   c-0.377,1.156,0.078,2.344,1.021,2.65c0.938,0.309,2.01-0.38,2.387-1.536c0.38-1.156,0.052-2.32-0.868-2.625   c-0.382-0.125-0.812-0.088-1.216,0.082l0.08-0.684c1.131-0.443,2.203-0.838,3.235-1.172c2.576-0.832,4.371-1.502,4.525-1.559   c0.277-0.082,0.521-0.264,0.701-0.494l-0.514-0.184c-0.08,0.072-0.172,0.133-0.273,0.174c-0.033,0.014-0.055,0.02-0.08,0.027   c0,0-1.834,0.691-4.516,1.557c-0.287,0.092-0.58,0.191-0.875,0.293c0.068-0.182,0.139-0.367,0.205-0.555l4.951-1.709l-0.502-0.182   l-4.31,1.486c0.277-0.814,0.531-1.699,0.779-2.713l-0.207-0.066l-0.115-0.037l-0.497-0.158l-3.16,0.777l0.096,0.322l3.547-0.873   c-0.064,0.258-0.127,0.504-0.189,0.746l-3.133,0.873l0.096,0.322l2.935-0.818c-0.066,0.24-0.136,0.475-0.205,0.703   c-0.011,0.002-0.022,0.004-0.037,0.008l-2.871,0.891l-0.479,0.502l3.27-1.016c-0.074,0.23-0.15,0.455-0.227,0.676l-4.09,1.412   c-0.029,0.023-0.058,0.043-0.074,0.053c-0.053,0.027-0.107,0.029-0.156,0.027L63.92,49.289c-0.047,0.018-0.086,0.033-0.121,0.049   c-0.412-0.193-0.711-0.492-0.83-0.93l5.904-1.832l0.018-0.359l-5.977,1.857c-0.002-0.041-0.004-0.084-0.004-0.127   c0-0.391,0.072-0.768,0.195-1.127l5.842-1.631c0.01-0.119,0.023-0.238,0.037-0.359l-5.719,1.598   c0.268-0.572,0.664-1.096,1.112-1.562l4.791-1.178c0.022-0.121,0.052-0.242,0.078-0.365l-4.386,1.078   c0.857-0.768,1.8-1.336,2.373-1.648l2.289-0.488c0.037-0.123,0.074-0.246,0.111-0.369l-2.484,0.533   c-1.444-0.16-5.272-0.787-9.791-3.207c0.009,0.27,0.013,0.543,0.013,0.82C57.375,41.846,57.195,43.574,56.863,45.184z    M78.238,48.377c0.168-0.512,0.527-0.895,1.1-0.707c0.434,0.143,0.645,0.688,0.471,1.221c-0.174,0.533-0.668,0.85-1.1,0.707   C78.273,49.457,78.064,48.91,78.238,48.377z M45.863,39.465c-0.057-0.021-0.109-0.062-0.16-0.127   c-0.223-0.301,0.262-0.678,0.486-0.377c0.039,0.055,0.062,0.107,0.072,0.158l17.83,21.846c0.043,0.014,0.089,0.041,0.125,0.086   c0.269,0.314-0.194,0.717-0.465,0.404c-0.041-0.051-0.062-0.102-0.065-0.154L45.863,39.465z M59.934,49.299l0.514,0.424   c-1.819-0.295-3.756-0.553-5.688-0.725l-0.299-0.365c0.332,0.027,0.666,0.057,0.998,0.09c0.312-0.771,0.582-1.594,0.809-2.459   l0.285,0.236c-0.211,0.789-0.461,1.545-0.746,2.26C57.213,48.904,58.604,49.092,59.934,49.299z M48.402,64.998   c-0.971-0.264-1.852-0.568-2.604-0.891c0.738-1.521,1.578-3.303,2.111-4.605c0.416-1.014,0.199-1.904-0.273-2.662   c0.971,0.496,1.939,0.992,2.906,1.488l-1.295,9.658c-1.961-0.127-3.676-0.461-4.906-0.937c0.186-0.364,0.701-1.393,1.311-2.641   c0.768,0.33,1.668,0.641,2.662,0.909C48.531,65.381,48.619,65.055,48.402,64.998z M50.861,58.492   c1.684,0.865,3.365,1.73,5.049,2.594c-1.162,1.746-3.123,4.631-3.904,5.73c-0.369,0.52-0.523,0.916-0.523,1.223   c-0.151,0.004-0.309,0.004-0.463,0.004c-0.487,0-0.969-0.012-1.434-0.037L50.861,58.492z M54.781,52.848   c0.043-0.303,0.383-0.551,0.967-0.74l2.373,2.908C55.969,54.271,54.691,53.494,54.781,52.848z M39.84,54.553   c-0.334,0.031-0.381-0.471-0.047-0.502c0,0,0.596-0.057,1.613,0.072c0.18-0.617,0.5-1.129,0.93-1.549   c2.16-2.111,7.586-1.965,10.402-2.047c0.557-0.017,1.131-0.017,1.719-0.004l0.418,0.514c-0.717-0.023-1.426-0.025-2.123-0.004   c-2.623,0.074-8.053-0.064-10.064,1.902c-0.355,0.346-0.619,0.762-0.777,1.264c1.129,0.191,2.643,0.602,4.369,1.467l0.615,0.311   c0.057,0.033,0.107,0.064,0.152,0.094l-0.039,0.007c-0.275,0.032-0.555,0.065-0.84,0.098l-0.115-0.059   c-1.748-0.873-3.262-1.269-4.359-1.441C40.531,54.49,39.84,54.553,39.84,54.553z M35.602,57.152   c1.482,0.016,3.057-0.008,4.686-0.08c2.332-0.1,4.568-0.229,6.559-0.469l0.043,0.059c0.635,0.779,0.969,1.645,0.557,2.648   c-1.031,2.512-3.197,6.809-3.57,7.545c-0.295,0.061-1.094,0.235-2.068,0.545L35.602,57.152z M50.264,73.232   c-0.641,0.291-1.307,0.524-2.752,0.76c-3.125,0.508-5.73,0.455-5.852-0.262c-0.096-0.558,1.383-1.297,3.494-1.845   c-2.76-0.059-3.451-0.743-4.418-1.528c-0.613-0.5-1.246-0.877-1.836-1.158c2.145-1.285,5.104-1.857,5.209-1.879   c1.312,0.527,3.168,0.889,5.281,1.012c0.895,0.654,1.453,1.803,1.49,2.922l-1.283,0.359c-0.047-0.027-0.107-0.041-0.182-0.033   c-0.334,0.037-0.277,0.539,0.057,0.502c0.117-0.014,0.189-0.072,0.225-0.146l1.178-0.33C50.836,72.199,50.641,72.768,50.264,73.232   z M50.885,72.939l-0.039,0.018c0.232-0.443,0.352-0.939,0.369-1.447l2.822-0.789C53.467,71.26,52.443,71.977,50.885,72.939z    M54.445,70.256l-3.232,0.904c-0.057-1.033-0.514-2.078-1.268-2.801c0.352,0.014,0.711,0.021,1.075,0.021   c0.18,0,0.356-0.004,0.533-0.006c0.278,0.603,1.342,0.76,2.239,1.037C54.602,69.66,54.699,69.883,54.445,70.256z M55.066,70.082   c0.192-0.986-1.578-1.268-2.336-1.516c-0.931-0.308-0.986-0.51-0.312-1.457c0.789-1.115,2.783-4.047,3.943-5.791   c1.854,0.951,3.717,1.897,5.586,2.84c1.748,0.881,3.488,1.748,5.139,2.557L55.066,70.082z M78.627,70.479   c-0.355,0.004-0.945-0.11-1.598-0.33c-0.867-0.295-1.561-0.678-1.715-0.928c-5.258-2.311-17.412-8.168-17.355-8.389   c0.068-0.264,14.43,6.721,17.475,7.918l0.685,0.266c0.317,0.053,0.7,0.15,1.108,0.287c0.646,0.217,1.193,0.484,1.496,0.711   c3.312,1.248,5.273,1.922,5.273,2.055C83.996,72.23,82.787,71.83,78.627,70.479z M95.551,73.352   c-1.287,0.447-2.861,0.572-4.572,0.486c-1.69-0.898-5.004-1.982-5.004-1.982c-2.873-0.879-4.752-2.334-4.752-3.979   c0-0.439,0.135-0.867,0.377-1.266c-4.684-0.344-8.32-1.604-8.252-2.904c0.027-0.518,0.639-0.967,1.664-1.312   c-0.303-0.028-0.609-0.062-0.918-0.102c-5.664-0.691-10.111-2.414-9.936-3.848c0.082-0.676,1.174-1.166,2.896-1.424l-0.125-0.004   c-2.517-0.371-4.828-0.853-6.748-1.373l-3.115-3.818c1-0.139,2.287-0.199,3.777-0.176c-0.71-0.119-1.427-0.226-2.146-0.312   c-0.735-0.09-1.473-0.162-2.209-0.215l-0.43-0.529c2.158,0.135,4.398,0.438,6.469,0.855l9.179,7.6   c0.213,0.396,0.778,0.473,1.084,0.1c0.304-0.364,0.121-0.889-0.302-1.026l-0.702-0.58c3.012,1.431,8.676,4.067,15.44,6.978   C97.809,69.068,98.904,72.186,95.551,73.352z M88.887,64.178c3.695,1.697,6.027,3.375,7.285,4.865   c-1.705-1.52-4.664-3.232-8.744-4.986c-7.305-3.143-13.326-5.969-16.102-7.293l2.703,0.48   C77.104,58.725,82.455,61.223,88.887,64.178z M72.561,56.471l-2.629-0.469l-2.389-1.977L72.561,56.471z M72.336,58.43   c0.049,0.008,0.098,0.027,0.145,0.062c0.334,0.268-0.063,0.754-0.399,0.488c-0.052-0.041-0.082-0.088-0.097-0.14l-23.825-19.73   c-0.062-0.012-0.125-0.043-0.188-0.098c-0.285-0.256,0.137-0.723,0.424-0.467c0.051,0.047,0.086,0.096,0.107,0.146L72.336,58.43z    M80.215,44.025c-0.07,0.189-0.143,0.377-0.217,0.562c-2.35,0.838-4.93,1.947-7.906,3.176c-1.125,0.465-2.406,1.008-3.635,1.533   c-1.295,0.277-2.982,0.512-4.152,0.221L80.215,44.025z M65.881,50.408l-0.531,0.23c-0.772-0.163-1.611-0.331-2.494-0.497   l-0.533-0.439C63.625,49.938,64.83,50.182,65.881,50.408z"/><path fill="#000000" d="M11.893,47.041c-0.197-0.629,0.016-1.031,0.406-1.16c0.035,0.17,0.078,0.334,0.125,0.49l-0.354,0.305   c0.008,0.092,0.029,0.191,0.062,0.301l0.016,0.045l0.334-0.469c0.039,0.115,0.082,0.228,0.129,0.33l-0.344,0.479l0.107,0.295   l0.303-0.627c0.047,0.098,0.096,0.191,0.148,0.277l-0.328,0.68l0.113,0.299l0.283-0.869c0.055,0.08,0.109,0.154,0.166,0.221   l-0.32,0.982l0.127,0.332l0.262-1.236c0.059,0.059,0.117,0.111,0.176,0.156l-0.303,1.43l0.158,0.404l0.213-1.787   c0.059,0.039,0.119,0.07,0.182,0.094l-0.246,2.072l0.213,0.547l0.096-2.598c0.061,0.018,0.121,0.027,0.184,0.027l-0.111,3   l0.482,1.211c1.756-0.129,3.064-3.466,2.756-7.664c-0.308-4.197-2.094-7.307-3.85-7.178c-1.062,0.078-1.963,1.334-2.439,3.246   c0.146,0.529,0.367,1.299,0.6,1.963l0.99,0.797c-0.021,0.125-0.039,0.256-0.051,0.389l-0.705-0.568   c0.123,0.295,0.244,0.527,0.354,0.646c0.008,0.008,0.031,0.033,0.117,0.045l0.227-0.025c-0.008,0.084-0.014,0.17-0.016,0.256   l-0.197,0.023c-0.133-0.012-0.236-0.051-0.312-0.133c-0.562-0.611-1.293-3.529-1.447-4.068c-0.875-3.018-3.633-10.695-5.035-10.533   C4.631,29.529,4.82,30.72,5.498,33.38c0.598,2.348,2.455,8.193,3.346,10.146c0.066,0.191,0.371,0.824-0.18,1.047L8.25,44.62   c-0.457,0.051-0.77,0.469-0.697,0.93c0.066,0.41,0.414,0.719,0.812,0.746c0.049,0.004,0.1,0.002,0.15-0.002l0.768-0.084   c0.801,0.162,1.498,1.779,2.756,4.565c1.266,2.804,3.834,8.841,4.33,9.855c0.736,1.51,1.572,1.676,0.285-1.477   C15.463,56.244,12.229,48.109,11.893,47.041z M13.982,51.174l-0.125-3.115h0.004c0.061-0.004,0.119-0.016,0.176-0.037l0.127,3.152   C14.176,51.449,13.994,51.449,13.982,51.174z M14.455,51.115l-0.365-3.113c0.061-0.025,0.117-0.061,0.172-0.102l0.369,3.143   C14.662,51.314,14.486,51.387,14.455,51.115z M14.338,43.227c0.131-0.035,0.305,0.299,0.391,0.744   c0.084,0.445,0.047,0.836-0.084,0.869c-0.131,0.033-0.215-0.33-0.326-0.781C14.199,43.574,14.205,43.26,14.338,43.227z    M14.908,50.869l-0.6-3.008c0.057-0.047,0.111-0.102,0.16-0.164l0.604,3.029C15.125,50.984,14.959,51.127,14.908,50.869z    M15.328,50.441l-0.818-2.797c0.051-0.068,0.1-0.145,0.145-0.227l0.822,2.816C15.547,50.473,15.396,50.682,15.328,50.441z    M15.701,49.848l-1.014-2.494c0.045-0.086,0.086-0.18,0.123-0.279l1.02,2.506C15.916,49.793,15.789,50.059,15.701,49.848z    M16.02,49.105l-1.18-2.107c0.023-0.072,0.049-0.146,0.07-0.225l0.029-0.1l1.184,2.113C16.223,48.965,16.119,49.281,16.02,49.105z    M16.27,48.234l-1.309-1.643c0.029-0.113,0.055-0.234,0.076-0.359l1.309,1.643C16.457,48.014,16.379,48.373,16.27,48.234z    M16.447,47.264l-1.395-1.123c0.02-0.125,0.035-0.256,0.047-0.389l1.393,1.123C16.609,46.969,16.562,47.359,16.447,47.264z    M16.543,46.223l-1.438-0.57c0.01-0.131,0.016-0.268,0.016-0.408l1.438,0.57C16.68,45.863,16.664,46.271,16.543,46.223z    M16.557,45.145h-1.436c0-0.068-0.002-0.137-0.004-0.207c-0.004-0.07-0.008-0.139-0.014-0.209h1.436   C16.66,44.729,16.678,45.145,16.557,45.145z M16.488,44.059l-1.391,0.57c-0.014-0.139-0.029-0.275-0.049-0.41l1.391-0.568   C16.557,43.602,16.604,44.01,16.488,44.059z M16.338,42.998l-1.303,1.125c-0.023-0.135-0.051-0.266-0.078-0.391l1.303-1.123   C16.369,42.514,16.447,42.904,16.338,42.998z M16.111,41.998l-1.178,1.643c-0.031-0.125-0.066-0.246-0.104-0.359l1.176-1.643   C16.105,41.5,16.211,41.859,16.111,41.998z M15.816,41.088l-1.018,2.111c-0.039-0.113-0.082-0.219-0.129-0.318l1.016-2.111   C15.771,40.592,15.9,40.91,15.816,41.088z M15.459,40.293l-0.822,2.518c-0.045-0.104-0.092-0.201-0.143-0.291l0.814-2.494   C15.379,39.814,15.527,40.082,15.459,40.293z M14.887,39.432c0.051-0.24,0.217-0.031,0.166,0.207l-0.596,2.811   c-0.051-0.088-0.104-0.17-0.158-0.246L14.887,39.432z M14.609,39.146l-0.355,2.996c-0.057-0.072-0.113-0.135-0.172-0.193   l0.352-2.943C14.465,38.746,14.641,38.887,14.609,39.146z M13.959,38.76c0.012-0.273,0.193-0.201,0.184,0.072l-0.113,3.066   c-0.059-0.051-0.119-0.096-0.18-0.133L13.959,38.76z M13.258,46.34c-0.215,0.018-0.42-0.188-0.57-0.518l0.07-0.01   c0.148-0.025,0.174-0.029,0.236-0.062c0.184-0.041,0.307-0.393,0.275-0.809c-0.029-0.406-0.174-0.689-0.357-0.777   c-0.127-0.049-0.105-0.055-0.404-0.025c0.086-0.447,0.281-0.758,0.529-0.777c0.375-0.027,0.727,0.617,0.787,1.439   C13.884,45.623,13.631,46.314,13.258,46.34z M13.664,38.701l0.121,3.029c-0.061-0.031-0.121-0.055-0.184-0.07l-0.117-2.959   C13.473,38.424,13.654,38.424,13.664,38.701z M13.193,38.76l0.338,2.889c-0.047-0.008-0.094-0.008-0.143-0.006l-0.043,0.006   l-0.328-2.816C12.986,38.559,13.16,38.488,13.193,38.76z M12.74,39.006l0.529,2.656c-0.062,0.018-0.121,0.041-0.18,0.072   l-0.514-2.586C12.523,38.887,12.688,38.746,12.74,39.006z M12.318,39.434l0.689,2.354c-0.057,0.041-0.113,0.09-0.166,0.148   l-0.67-2.295C12.102,39.4,12.25,39.193,12.318,39.434z M11.945,40.027l0.814,2.004c-0.051,0.066-0.1,0.141-0.146,0.221   l-0.797-1.959C11.73,40.082,11.859,39.814,11.945,40.027z M11.629,40.77l0.91,1.625c-0.043,0.09-0.084,0.188-0.121,0.289   l-0.893-1.596C11.426,40.91,11.529,40.592,11.629,40.77z M11.301,41.998c-0.109-0.139-0.033-0.496,0.076-0.357l0.98,1.229   c-0.033,0.109-0.062,0.225-0.088,0.346L11.301,41.998z M9.299,43.471c-0.646-1.102-2.865-7.295-3.471-9.818   c-0.607-2.523-0.818-3.791-0.562-3.852c0.879-0.205,3.604,7.246,4.303,10.129C10.48,43.678,9.824,44.365,9.299,43.471z"/><path fill="#000000" d="M69.191,46.988l2.211-0.736c0.522-6.738,1.941-8.197,3.656-11.379l0.299-2.266l-1.662,0.309l-1.4,0.152   c-0.885,0.098-3.879,0.236-3.879,0.236l-0.627,4.857l1.373-0.205c0.344-2.523,0.748-2.398,2.529-2.611l1.721-0.205   c0,0-3.76,5.166-4.139,10.227L69.191,46.988z"/><path fill="#000000" d="M83.822,29.342l0.305-0.037l1.494-0.186l0.676-0.084c0.23-0.029,0.189-0.363-0.041-0.334l-0.676,0.084   l-1.494,0.186l-0.305,0.039C83.549,29.037,83.59,29.371,83.822,29.342z"/></g><text x="0" y="115" fill="#000000" font-size="5px" font-weight="bold" font-family="'Helvetica Neue', Helvetica, Arial-Unicode, Arial, Sans-serif">Created by Simon Child</text><text x="0" y="120" fill="#000000" font-size="5px" font-weight="bold" font-family="'Helvetica Neue', Helvetica, Arial-Unicode, Arial, Sans-serif">from the Noun Project</text></svg>