<svg xmlns="http://www.w3.org/2000/svg" xmlns:xlink="http://www.w3.org/1999/xlink" version="1.1" x="0px" y="0px" viewBox="0 0 100 125" enable-background="new 0 0 100 100" xml:space="preserve"><path d="M70.581,73.228c0-0.673-0.545-1.219-1.218-1.219H24.945c-0.673,0-1.218,0.546-1.218,1.219s0.545,1.219,1.218,1.219h44.417  C70.036,74.446,70.581,73.9,70.581,73.228z"/><path d="M83.707,41.382C81.855,28.997,71.193,19.738,58.58,19.738c-11.809,0-22.026,8.167-24.722,19.556  c-0.021,0-0.041-0.003-0.062-0.003c-7.352,0-13.332,5.98-13.332,13.332c0,0.66,0.064,1.303,0.157,1.938H5  c-0.673,0-1.218,0.546-1.218,1.219S4.327,56.998,5,56.998h16.216c0.424,1.216,1.017,2.351,1.756,3.379H11.648  c-0.673,0-1.218,0.546-1.218,1.219s0.545,1.219,1.218,1.219h13.57c2.321,1.956,5.312,3.141,8.577,3.141  c0.673,0,1.218-0.546,1.218-1.219s-0.545-1.219-1.218-1.219c-6.008,0-10.896-4.887-10.896-10.895s4.888-10.895,10.896-10.895  c0.307,0,0.611,0.016,0.911,0.04c0,0,0,0,0,0c3.281,0.271,6.232,1.994,8.097,4.725c0.236,0.346,0.618,0.532,1.007,0.532  c0.237,0,0.476-0.069,0.686-0.213c0.556-0.379,0.699-1.137,0.319-1.692c-2.017-2.954-5.074-4.943-8.533-5.594  c2.552-10.128,11.729-17.351,22.296-17.351c11.627,0,21.441,8.691,22.829,20.218c0.111,0.924,0.167,1.858,0.167,2.777  c0,4.017-1.051,7.97-3.039,11.432c-0.335,0.583-0.134,1.328,0.45,1.663c0.581,0.333,1.328,0.134,1.663-0.45  c2.199-3.83,3.362-8.202,3.362-12.645c0-0.331-0.006-0.663-0.02-0.996c5.925,2.988,9.789,9.145,9.789,15.879  c0,9.799-7.972,17.771-17.771,17.771H34.277c-0.673,0-1.218,0.546-1.218,1.219s0.545,1.219,1.218,1.219h41.734  c11.142,0,20.207-9.065,20.207-20.208C96.218,51.887,91.215,44.482,83.707,41.382z"/><path d="M47.145,31.427c2.889-3.333,7.072-5.244,11.478-5.244c2.286,0,4.482,0.494,6.527,1.471c0.608,0.291,1.335,0.033,1.625-0.575  c0.29-0.606,0.032-1.334-0.575-1.624c-2.376-1.134-4.925-1.709-7.577-1.709c-5.113,0-9.968,2.219-13.319,6.086  c-0.441,0.509-0.386,1.277,0.123,1.719c0.23,0.199,0.515,0.298,0.797,0.298C46.564,31.848,46.904,31.705,47.145,31.427z"/><path d="M74.907,40.607c0.048,0,0.098-0.003,0.147-0.009c0.668-0.081,1.145-0.688,1.064-1.355c-0.302-2.514-1.125-4.886-2.446-7.049  c-0.352-0.575-1.102-0.756-1.675-0.405c-0.574,0.351-0.756,1.101-0.405,1.675c1.138,1.863,1.847,3.905,2.107,6.07  C73.773,40.152,74.299,40.607,74.907,40.607z"/><path d="M63.933,67.411c0-0.673-0.545-1.219-1.218-1.219H18.297c-0.673,0-1.218,0.546-1.218,1.219s0.545,1.219,1.218,1.219h44.417  C63.387,68.63,63.933,68.084,63.933,67.411z"/><text x="0" y="115" fill="#000000" font-size="5px" font-weight="bold" font-family="'Helvetica Neue', Helvetica, Arial-Unicode, Arial, Sans-serif">Created by Jolan Soens</text><text x="0" y="120" fill="#000000" font-size="5px" font-weight="bold" font-family="'Helvetica Neue', Helvetica, Arial-Unicode, Arial, Sans-serif">from the Noun Project</text></svg>